<?xml version="1.0" encoding="UTF-8" standalone="no"?><!DOCTYPE svg PUBLIC "-//W3C//DTD SVG 1.1//EN" "http://www.w3.org/Graphics/SVG/1.1/DTD/svg11.dtd"><svg width="100%" height="100%" viewBox="0 0 67 67" version="1.1" xmlns="http://www.w3.org/2000/svg" xmlns:xlink="http://www.w3.org/1999/xlink" xml:space="preserve" xmlns:serif="http://www.serif.com/" style="fill-rule:evenodd;clip-rule:evenodd;stroke-linecap:round;stroke-miterlimit:2;"><path d="M47.222,33.333c0,-7.661 -6.228,-13.889 -13.889,-13.889c-7.617,0.006 -13.883,6.272 -13.889,13.889c0,7.661 6.228,13.889 13.889,13.889c7.661,0 13.889,-6.228 13.889,-13.889Zm-13.889,27.778l0,-13.889m-27.778,-13.889l13.889,0m27.778,0l13.889,0m-27.778,-13.889l0,-13.889m-19.644,8.133l9.822,9.822m19.644,19.644l9.822,9.822m-39.289,0l9.822,-9.822m19.644,-19.644l9.822,-9.822" style="fill:none;fill-rule:nonzero;stroke:#000;stroke-width:4.17px;"/><path d="M33.934,10.344l8.752,2.051l7.014,4.951l4.714,7.175l1.758,8.816l-1.758,8.816l-4.714,7.175l-7.014,4.951l-8.752,2.051l-0.767,0.013l-9.007,-1.838l-7.257,-4.903l-4.903,-7.257l-1.838,-9.007l1.838,-9.007l4.903,-7.257l7.257,-4.903l9.007,-1.838l0.767,0.013Zm-1.389,41.643l0.622,0.01c10.237,0 18.661,-8.424 18.661,-18.661c0,-10.237 -8.424,-18.661 -18.661,-18.661l-0.622,0.01c-9.997,0.334 -18.039,8.648 -18.039,18.651c0,10.002 8.042,18.317 18.039,18.651Z"/><path d="M33.239,31.165c-0.024,-0.001 -0.048,-0.001 -0.072,-0.001c-1.192,0 -2.172,0.98 -2.172,2.172c0,1.192 0.98,2.172 2.172,2.172c0.024,0 0.048,-0 0.072,-0.001c1.164,-0.039 2.1,-1.007 2.1,-2.171c0,-1.164 -0.936,-2.132 -2.1,-2.171Z" style="fill-rule:nonzero;"/><path d="M33.323,28.667l0.917,0.123l0.854,0.292l0.766,0.44l0.663,0.569l0.546,0.681l0.415,0.78l0.264,0.863l0.092,0.921l-0.092,0.921l-0.264,0.863l-0.415,0.78l-0.546,0.681l-0.663,0.569l-0.766,0.44l-0.854,0.292l-0.917,0.123l-0.156,0.003l-0.942,-0.096l-0.88,-0.276l-0.792,-0.432l-0.687,-0.568l-0.568,-0.687l-0.432,-0.792l-0.276,-0.88l-0.096,-0.942l0.096,-0.942l0.276,-0.88l0.432,-0.792l0.568,-0.687l0.687,-0.568l0.792,-0.432l0.88,-0.276l0.942,-0.096l0.156,0.003Zm-0.083,2.499l-0.072,-0.001c-1.192,0 -2.172,0.98 -2.172,2.172c0,1.192 0.98,2.172 2.172,2.172l0.072,-0.001c1.164,-0.039 2.1,-1.007 2.1,-2.171c0,-1.164 -0.936,-2.132 -2.1,-2.171Z"/></svg>